<svg width="1024" height="1024" viewBox="0 0 1024 1024" fill="none" xmlns="http://www.w3.org/2000/svg">
<path d="M236.267 472.64C366.827 472.64 472.533 366.827 472.533 236.373C472.533 105.92 366.827 0 236.267 0C105.707 0 0 105.813 0 236.267C0 366.72 105.813 472.533 236.267 472.533V472.64Z" fill="url(#paint0_radial_67_2)"/>
<path d="M787.733 472.64C918.293 472.64 1024 366.827 1024 236.373C1024 105.92 918.187 0 787.733 0C657.28 0 551.467 105.813 551.467 236.267C551.467 366.72 657.28 472.533 787.733 472.533V472.64Z" fill="url(#paint1_radial_67_2)"/>
<path d="M236.267 1024C366.827 1024 472.533 918.186 472.533 787.733C472.533 657.28 366.72 551.467 236.267 551.467C105.813 551.467 0 657.173 0 787.733C0 918.293 105.813 1024 236.267 1024Z" fill="url(#paint2_radial_67_2)"/>
<path d="M787.733 1024C918.293 1024 1024 918.186 1024 787.733C1024 657.28 918.187 551.467 787.733 551.467C657.28 551.467 551.467 657.28 551.467 787.733C551.467 918.186 657.28 1024 787.733 1024Z" fill="url(#paint3_radial_67_2)"/>
<defs>
<radialGradient id="paint0_radial_67_2" cx="0" cy="0" r="1" gradientUnits="userSpaceOnUse" gradientTransform="translate(245.795 216.52) rotate(90) scale(235.267 235.267)">
<stop offset="0.5" stop-color="#E05C10"/>
<stop offset="1" stop-color="#D44516"/>
</radialGradient>
<radialGradient id="paint1_radial_67_2" cx="0" cy="0" r="1" gradientUnits="userSpaceOnUse" gradientTransform="translate(798.554 216.52) rotate(90) scale(235.267 235.267)">
<stop offset="0.5" stop-color="#F3D623"/>
<stop offset="1" stop-color="#F5BE1C"/>
</radialGradient>
<radialGradient id="paint2_radial_67_2" cx="0" cy="0" r="1" gradientUnits="userSpaceOnUse" gradientTransform="translate(245.795 770.559) rotate(90) scale(235.267 235.267)">
<stop offset="0.5" stop-color="#0767AD"/>
<stop offset="1" stop-color="#015086"/>
</radialGradient>
<radialGradient id="paint3_radial_67_2" cx="0" cy="0" r="1" gradientUnits="userSpaceOnUse" gradientTransform="translate(799.727 769.279) rotate(90) scale(235.267 235.267)">
<stop offset="0.5" stop-color="#0E8C41"/>
<stop offset="1" stop-color="#0E7A3B"/>
</radialGradient>
</defs>
</svg>
